<?xml version="1.0" encoding="UTF-8"?>
<svg version="1.1" xmlns="http://www.w3.org/2000/svg" width="2160" height="260">
<path d="M0 0 C5.64971865 0.62774652 10.75803849 1.26274873 16.23876953 2.4519043 C16.90795693 2.59568732 17.57714434 2.73947035 18.26661015 2.88761044 C19.71383653 3.19912519 21.16062824 3.51266508 22.60701561 3.82805252 C24.94899851 4.33864854 27.29211393 4.84373475 29.63557434 5.34750366 C33.02410626 6.07626654 36.41220721 6.80698678 39.80001831 7.53909302 C121.1362491 25.09923673 202.88538903 40.62846787 936.1159668 116.91467285 C938.76947282 116.99317961 941.42283316 117.07523329 944.07617188 117.15917969 C997.33266409 118.83513503 1050.72048153 119.43986462 1104 119 C1104.64818947 118.99468262 1105.29637894 118.98936523 1105.96421051 118.98388672 C1181.35310071 118.35875997 1256.68448601 116.39052897 2141.87451172 2.89331055 C2142.76798813 2.68979477 2143.66146454 2.48627899 2144.58201599 2.27659607 C2146.17671738 1.91193183 2147.77033797 1.54248328 2149.36244202 1.16664124 C2153.09246005 0.31081573 2156.11419826 0 2160 0 C2160 85.8 2160 171.6 2160 260 C1447.2 260 734.4 260 0 260 C0 174.2 0 88.4 0 0 Z " fill="#FFFFFF" transform="translate(0,0)"/>
</svg>
