<?xml version="1.0" encoding="UTF-8"?>
<svg version="1.1" xmlns="http://www.w3.org/2000/svg" width="1440" height="173">
<path d="M0 0 C10.1204027 1.12448919 10.1204027 1.12448919 14.6340332 2.10058594 C15.65797684 2.31934387 16.68192047 2.53810181 17.7368927 2.76348877 C18.83047592 3.00138123 19.92405914 3.23927368 21.05078125 3.484375 C23.49146692 4.00618476 25.93222568 4.52765267 28.37304688 5.04882812 C29.66202881 5.3254126 30.95101074 5.60199707 32.27905273 5.88696289 C105.87230312 21.65806642 179.9610373 34.87028384 573.8125 75.6875 C574.48840431 75.71824867 575.16430862 75.74899734 575.86069489 75.7806778 C606.56639939 77.17388608 637.26606995 78.10190848 668 78.5625 C669.38199879 78.58355105 670.76399749 78.60460827 672.14599609 78.62567139 C694.76626567 78.96755319 717.37749082 79.20557602 740 79 C741.5666037 78.9870993 741.5666037 78.9870993 743.16485596 78.97393799 C821.34876488 78.31979214 899.4494844 74.9012763 1161 49 C1162.23554626 48.83218018 1163.47109253 48.66436035 1164.74407959 48.49145508 C1244.89311775 37.56507787 1324.56649632 23.55203468 1411.62695312 5.04882812 C1413.48632256 4.65180695 1413.48632256 4.65180695 1415.383255 4.24676514 C1417.67738681 3.75628806 1419.97074227 3.26215804 1422.2631073 2.76348877 C1423.79902275 2.43535187 1423.79902275 2.43535187 1425.3659668 2.10058594 C1426.2423027 1.91107361 1427.11863861 1.72156128 1428.02153015 1.52630615 C1431.98523086 0.82590622 1435.99951199 0.44449867 1440 0 C1440 57.09 1440 114.18 1440 173 C964.8 173 489.6 173 0 173 C0 115.91 0 58.82 0 0 Z " fill="#0C1016" transform="translate(0,0)"/>
</svg>
